<svg width="66" height="71" viewBox="0 0 66 71" fill="none" xmlns="http://www.w3.org/2000/svg">
<rect width="64" height="64" rx="12" fill="#FB6D3A"/>
<path d="M22.2169 41.9707C20.5795 41.9707 19.293 40.6842 19.293 39.0468V27.5849C19.293 25.1288 21.3982 23.1405 23.8543 23.2575C25.0239 23.2575 26.1935 23.8423 27.0122 24.661C26.8952 24.1932 26.7783 23.7253 26.7783 23.1405C26.8952 20.2166 29.3513 17.8774 32.2753 17.8774C34.4975 17.8774 36.4857 19.3979 37.1875 21.5031C39.4097 19.5148 42.8015 19.7488 44.7897 22.0879C45.0237 22.4388 45.3745 22.7897 45.4915 23.1405C46.3102 22.5557 47.1289 22.3218 48.1815 22.3218C50.6376 22.3218 52.6259 24.3101 52.6259 26.7662C52.6259 27.8188 52.275 28.7545 51.5733 29.5732L51.2224 30.041H42.9184C42.9184 30.158 42.9184 30.158 42.9184 30.275C42.9184 30.7428 42.9184 31.0937 42.9184 31.5615C42.9184 31.7954 42.9184 32.0293 42.9184 32.1463C42.9184 35.0702 40.4623 37.4094 37.4214 37.4094C34.9653 37.4094 32.7431 35.538 32.2753 33.0819C31.2227 35.3041 28.5326 36.2398 26.3104 35.1872C25.8426 34.9533 25.4917 34.7193 25.1409 34.3685V39.1637C25.1409 40.8011 23.8543 42.0877 22.2169 41.9707Z" fill="white"/>
<path d="M42.9189 30.0404H38.3576C38.3576 30.1574 38.3576 30.1574 38.3576 30.2743C38.3576 30.7422 38.3576 31.093 38.3576 31.5609C38.3576 31.7948 38.3576 32.0287 38.3576 32.1456C38.3576 34.1339 37.071 36.0052 35.3167 36.824C36.0184 37.1748 36.8371 37.2918 37.5388 37.2918C40.4628 37.2918 42.9189 34.9526 42.9189 32.0287C42.9189 31.9117 42.9189 31.6778 42.9189 31.4439C42.9189 30.9761 42.9189 30.6252 42.9189 30.1574C42.9189 30.1574 42.9189 30.1574 42.9189 30.0404Z" fill="#F7EEBA"/>
<path d="M48.1824 22.4385C47.3637 22.4385 46.662 22.6725 45.9602 23.0233C48.0654 24.1929 48.7672 26.766 47.5976 28.8712C47.4807 29.1051 47.2467 29.339 47.1298 29.573L46.7789 30.0408H51.3403L51.6911 29.573C52.3929 28.7543 52.7437 27.8186 52.7437 26.766C52.6268 24.4268 50.6385 22.4385 48.1824 22.4385Z" fill="#F7EEBA"/>
<path d="M27.3636 70.9762C25.1414 71.2101 23.1531 69.6897 22.9192 67.4675C22.9192 67.1166 22.9192 66.8827 22.9192 66.5318V42.0877L23.6209 41.7368C24.6736 41.269 25.2583 40.2163 25.2583 39.1637V34.8363L26.7788 35.4211C27.2466 35.538 27.7145 35.655 28.2992 35.655C29.3519 35.655 30.5214 35.3041 31.3401 34.6024L32.3928 33.6667L33.0945 34.8363C34.0302 36.4737 35.7845 37.4093 37.6559 37.4093C40.5798 37.4093 43.0359 35.0702 43.0359 32.1463C43.0359 32.0293 43.0359 31.7954 43.0359 31.5615L43.1529 30.041H50.8721C51.5738 30.041 52.1586 30.6258 52.1586 31.3276V66.5318C52.3925 68.754 50.8721 70.7423 48.6499 70.9762C48.299 70.9762 48.0651 70.9762 47.7142 70.9762H27.3636Z" fill="#FBCF4C"/>
<path d="M50.7543 30.041H44.5556C45.2573 30.041 45.7252 30.6258 45.7252 31.3275V66.5318C45.9591 68.754 44.4386 70.7423 42.2164 70.9762C41.8655 70.9762 41.6316 70.9762 41.2808 70.9762H47.4795C49.7017 71.2101 51.69 69.6897 51.9239 67.4675C51.9239 67.1166 51.9239 66.8827 51.9239 66.5318V31.3275C51.9239 30.6258 51.4561 30.041 50.7543 30.041Z" fill="#EDB248"/>
<path d="M52.041 64.7767V58.227H56.2515C58.9415 58.227 59.1754 55.537 59.1754 54.3674V46.6482C59.1754 45.4787 58.9415 42.7886 56.2515 42.7886H52.041V36.356H59.7602C63.152 36.356 65.1403 38.929 65.1403 43.3734V57.6422C65.1403 62.0866 63.152 64.6597 59.7602 64.6597L52.041 64.7767Z" fill="#FBCF4C"/>
<path d="M59.7605 36.356H56.0178C59.4096 36.356 61.3979 38.929 61.3979 43.3734V57.6423C61.3979 62.0866 59.4096 64.6597 56.0178 64.6597H59.7605C63.1522 64.6597 65.1405 62.0866 65.1405 57.6423V43.3734C65.1405 38.929 63.1522 36.356 59.7605 36.356Z" fill="#EDB248"/>
<path d="M28.8178 39.6614C28.3179 39.6614 27.9846 39.8748 27.9846 40.1949V48.9444C27.9846 49.2645 28.3179 49.4779 28.8178 49.4779C29.3178 49.4779 29.651 49.2645 29.651 48.9444V40.1949C29.651 39.8748 29.2344 39.6614 28.8178 39.6614Z" fill="#4A2328"/>
<path d="M32.7336 39.6616C32.2337 39.6616 31.9004 39.875 31.9004 40.1951V48.9446C31.9004 49.2647 32.2337 49.4781 32.7336 49.4781C33.2335 49.4781 33.5668 49.2647 33.5668 48.9446V40.1951C33.5668 39.875 33.2335 39.6616 32.7336 39.6616Z" fill="#4A2328"/>
<path d="M36.7334 39.6616C36.2334 39.6616 35.9001 39.875 35.9001 40.1951V48.9446C35.9001 49.2647 36.2334 49.4781 36.7334 49.4781C37.2333 49.4781 37.5666 49.2647 37.5666 48.9446V40.1951C37.5666 39.875 37.15 39.6616 36.7334 39.6616Z" fill="#4A2328"/>
<path d="M40.6491 39.6616C40.1492 39.6616 39.8159 39.875 39.8159 40.1951V48.9446C39.8159 49.2647 40.1492 49.4781 40.6491 49.4781C41.1491 49.4781 41.4823 49.2647 41.4823 48.9446V40.1951C41.4823 39.875 41.1491 39.6616 40.6491 39.6616Z" fill="#4A2328"/>
</svg>

